<svg xmlns="http://www.w3.org/2000/svg" width="64" height="64" viewBox="0 0 64 64">
  <rect width="64" height="64" rx="14" fill="#34205c"/>
  <g transform="translate(14,14) scale(1.5)" fill="none" stroke="#c9a24b" stroke-width="2" stroke-linecap="round" stroke-linejoin="round">
    <path d="M12 3c.132 0 .263 0 .393 0a7.5 7.5 0 0 0 7.92 12.446a9 9 0 1 1 -8.313 -12.454l0 .008" />
    <path d="M17 4a2 2 0 0 0 2 2a2 2 0 0 0 -2 2a2 2 0 0 0 -2 -2a2 2 0 0 0 2 -2" />
    <path d="M19 11h2m-1 -1v2" />
  </g>
</svg>
